<?xml version="1.0" standalone="no"?><!DOCTYPE svg PUBLIC "-//W3C//DTD SVG 1.1//EN" "http://www.w3.org/Graphics/SVG/1.1/DTD/svg11.dtd"><svg t="1625057328825" class="icon" viewBox="0 0 1024 1024" version="1.1" xmlns="http://www.w3.org/2000/svg" p-id="8046" xmlns:xlink="http://www.w3.org/1999/xlink" width="200" height="200"><defs><style type="text/css"></style></defs><path d="M640 938.666667c-17.066667 0-34.133333-12.8-38.4-29.866667L384 264.533333l-89.6 264.533334c-4.266667 12.8-21.333333 25.6-38.4 25.6H85.333333c-25.6 0-42.666667-17.066667-42.666666-42.666667s17.066667-42.666667 42.666666-42.666667h140.8l119.466667-354.133333c4.266667-17.066667 21.333333-29.866667 38.4-29.866667s34.133333 12.8 38.4 29.866667L640 759.466667l89.6-264.533334c4.266667-17.066667 21.333333-29.866667 38.4-29.866666h170.666667c25.6 0 42.666667 17.066667 42.666666 42.666666s-17.066667 42.666667-42.666666 42.666667h-140.8l-119.466667 354.133333c-4.266667 21.333333-21.333333 34.133333-38.4 34.133334z" p-id="8047"></path></svg>