<?xml version="1.0" standalone="no"?><!DOCTYPE svg PUBLIC "-//W3C//DTD SVG 1.1//EN" "http://www.w3.org/Graphics/SVG/1.1/DTD/svg11.dtd"><svg t="1625497667234" class="icon" viewBox="0 0 1024 1024" version="1.1" xmlns="http://www.w3.org/2000/svg" p-id="3604" xmlns:xlink="http://www.w3.org/1999/xlink" width="200" height="200"><defs><style type="text/css"></style></defs><path d="M810.666667 981.333333H213.333333c-72.533333 0-128-55.466667-128-128V256c0-72.533333 55.466667-128 128-128h597.333334c72.533333 0 128 55.466667 128 128v597.333333c0 72.533333-55.466667 128-128 128zM213.333333 213.333333c-25.6 0-42.666667 17.066667-42.666666 42.666667v597.333333c0 25.6 17.066667 42.666667 42.666666 42.666667h597.333334c25.6 0 42.666667-17.066667 42.666666-42.666667V256c0-25.6-17.066667-42.666667-42.666666-42.666667H213.333333z" p-id="3605"></path><path d="M682.666667 298.666667c-25.6 0-42.666667-17.066667-42.666667-42.666667V85.333333c0-25.6 17.066667-42.666667 42.666667-42.666666s42.666667 17.066667 42.666666 42.666666v170.666667c0 25.6-17.066667 42.666667-42.666666 42.666667zM341.333333 298.666667c-25.6 0-42.666667-17.066667-42.666666-42.666667V85.333333c0-25.6 17.066667-42.666667 42.666666-42.666666s42.666667 17.066667 42.666667 42.666666v170.666667c0 25.6-17.066667 42.666667-42.666667 42.666667zM896 469.333333H128c-25.6 0-42.666667-17.066667-42.666667-42.666666s17.066667-42.666667 42.666667-42.666667h768c25.6 0 42.666667 17.066667 42.666667 42.666667s-17.066667 42.666667-42.666667 42.666666z" p-id="3606"></path></svg>