<?xml version="1.0" standalone="no"?><!DOCTYPE svg PUBLIC "-//W3C//DTD SVG 1.1//EN" "http://www.w3.org/Graphics/SVG/1.1/DTD/svg11.dtd"><svg t="1624889289701" class="icon" viewBox="0 0 1024 1024" version="1.1" xmlns="http://www.w3.org/2000/svg" p-id="2561" xmlns:xlink="http://www.w3.org/1999/xlink" width="200" height="200"><defs><style type="text/css"></style></defs><path d="M96 960c-4.8 0-9.6-1.6-14.4-3.2-11.2-4.8-17.6-16-17.6-28.8V192c0-52.8 43.2-96 96-96h704c52.8 0 96 43.2 96 96v544c0 52.8-43.2 96-96 96H278.4c-8 0-14.4 3.2-20.8 6.4l-142.4 113.6c-4.8 6.4-12.8 8-19.2 8z m64-800c-17.6 0-32 14.4-32 32v668.8l91.2-72c17.6-12.8 38.4-20.8 59.2-20.8H864c17.6 0 32-14.4 32-32V192c0-17.6-14.4-32-32-32H160z" p-id="2562"></path><path d="M320 512c-17.6 0-32-14.4-32-32v-32c0-17.6 14.4-32 32-32s32 14.4 32 32v32c0 17.6-14.4 32-32 32zM512 512c-17.6 0-32-14.4-32-32v-32c0-17.6 14.4-32 32-32s32 14.4 32 32v32c0 17.6-14.4 32-32 32zM704 512c-17.6 0-32-14.4-32-32v-32c0-17.6 14.4-32 32-32s32 14.4 32 32v32c0 17.6-14.4 32-32 32z" p-id="2563"></path></svg>