<?xml version="1.0" standalone="no"?><!DOCTYPE svg PUBLIC "-//W3C//DTD SVG 1.1//EN" "http://www.w3.org/Graphics/SVG/1.1/DTD/svg11.dtd"><svg t="1624982537113" class="icon" viewBox="0 0 1024 1024" version="1.1" xmlns="http://www.w3.org/2000/svg" p-id="4351" xmlns:xlink="http://www.w3.org/1999/xlink" width="200" height="200"><defs><style type="text/css"></style></defs><path d="M512 0C229.888 0 0 229.888 0 512s229.888 512 512 512 512-229.888 512-512S794.112 0 512 0z m0 944.64c-238.592 0-432.64-194.048-432.64-432.64S273.408 79.36 512 79.36s432.64 194.048 432.64 432.64-194.048 432.64-432.64 432.64z" p-id="4352"></path><path d="M644.608 379.392c15.36 15.36 40.448 15.36 55.808 0s15.36-40.448 0-55.808c-103.936-103.936-273.408-103.936-377.344 0-103.936 103.936-103.936 273.408 0 377.344 52.224 52.224 120.32 77.824 188.928 77.824s136.704-26.112 188.928-77.824c15.36-15.36 15.36-40.448 0-55.808s-40.448-15.36-55.808 0c-73.216 73.216-192.512 73.216-265.728 0-73.216-73.216-73.216-192.512 0-265.728 73.216-73.216 192-73.216 265.216 0z" p-id="4353"></path></svg>