<?xml version="1.0" standalone="no"?><!DOCTYPE svg PUBLIC "-//W3C//DTD SVG 1.1//EN" "http://www.w3.org/Graphics/SVG/1.1/DTD/svg11.dtd"><svg t="1625057182557" class="icon" viewBox="0 0 1024 1024" version="1.1" xmlns="http://www.w3.org/2000/svg" p-id="3746" xmlns:xlink="http://www.w3.org/1999/xlink" width="200" height="200"><defs><style type="text/css"></style></defs><path d="M853.333333 896H170.666667c-72.533333 0-128-55.466667-128-128V256c0-72.533333 55.466667-128 128-128h682.666666c72.533333 0 128 55.466667 128 128v512c0 72.533333-55.466667 128-128 128zM170.666667 213.333333c-25.6 0-42.666667 17.066667-42.666667 42.666667v512c0 25.6 17.066667 42.666667 42.666667 42.666667h682.666666c25.6 0 42.666667-17.066667 42.666667-42.666667V256c0-25.6-17.066667-42.666667-42.666667-42.666667H170.666667z" p-id="3747"></path><path d="M512 597.333333c-8.533333 0-17.066667-4.266667-25.6-8.533333l-426.666667-298.666667c-17.066667-12.8-21.333333-38.4-8.533333-59.733333 12.8-17.066667 38.4-21.333333 59.733333-8.533333l401.066667 281.6 401.066667-281.6c21.333333-12.8 46.933333-8.533333 59.733333 8.533333 12.8 21.333333 8.533333 46.933333-8.533333 59.733333l-426.666667 298.666667c-8.533333 4.266667-17.066667 8.533333-25.6 8.533333z" p-id="3748"></path></svg>