<?xml version="1.0" standalone="no"?><!DOCTYPE svg PUBLIC "-//W3C//DTD SVG 1.1//EN" "http://www.w3.org/Graphics/SVG/1.1/DTD/svg11.dtd"><svg t="1625057178677" class="icon" viewBox="0 0 1024 1024" version="1.1" xmlns="http://www.w3.org/2000/svg" p-id="3604" xmlns:xlink="http://www.w3.org/1999/xlink" width="200" height="200"><defs><style type="text/css"></style></defs><path d="M512 1024c-8.533333 0-17.066667-4.266667-25.6-8.533333C473.6 1006.933333 85.333333 742.4 85.333333 426.666667 85.333333 192 277.333333 0 512 0s426.666667 192 426.666667 426.666667c0 315.733333-388.266667 580.266667-401.066667 588.8-8.533333 4.266667-17.066667 8.533333-25.6 8.533333z m0-938.666667c-187.733333 0-341.333333 153.6-341.333333 341.333334 0 230.4 260.266667 443.733333 341.333333 503.466666 81.066667-59.733333 341.333333-273.066667 341.333333-503.466666 0-187.733333-153.6-341.333333-341.333333-341.333334z" p-id="3605"></path><path d="M512 597.333333c-93.866667 0-170.666667-76.8-170.666667-170.666666s76.8-170.666667 170.666667-170.666667 170.666667 76.8 170.666667 170.666667-76.8 170.666667-170.666667 170.666666z m0-256c-46.933333 0-85.333333 38.4-85.333333 85.333334s38.4 85.333333 85.333333 85.333333 85.333333-38.4 85.333333-85.333333-38.4-85.333333-85.333333-85.333334z" p-id="3606"></path></svg>