<?xml version="1.0" standalone="no"?><!DOCTYPE svg PUBLIC "-//W3C//DTD SVG 1.1//EN" "http://www.w3.org/Graphics/SVG/1.1/DTD/svg11.dtd"><svg t="1625591367178" class="icon" viewBox="0 0 1024 1024" version="1.1" xmlns="http://www.w3.org/2000/svg" p-id="3604" xmlns:xlink="http://www.w3.org/1999/xlink" width="200" height="200"><defs><style type="text/css"></style></defs><path d="M768 384c-93.866667 0-170.666667-76.8-170.666667-170.666667s76.8-170.666667 170.666667-170.666666 170.666667 76.8 170.666667 170.666666-76.8 170.666667-170.666667 170.666667z m0-256c-46.933333 0-85.333333 38.4-85.333333 85.333333s38.4 85.333333 85.333333 85.333334 85.333333-38.4 85.333333-85.333334-38.4-85.333333-85.333333-85.333333zM256 682.666667c-93.866667 0-170.666667-76.8-170.666667-170.666667s76.8-170.666667 170.666667-170.666667 170.666667 76.8 170.666667 170.666667-76.8 170.666667-170.666667 170.666667z m0-256c-46.933333 0-85.333333 38.4-85.333333 85.333333s38.4 85.333333 85.333333 85.333333 85.333333-38.4 85.333333-85.333333-38.4-85.333333-85.333333-85.333333zM768 981.333333c-93.866667 0-170.666667-76.8-170.666667-170.666666s76.8-170.666667 170.666667-170.666667 170.666667 76.8 170.666667 170.666667-76.8 170.666667-170.666667 170.666666z m0-256c-46.933333 0-85.333333 38.4-85.333333 85.333334s38.4 85.333333 85.333333 85.333333 85.333333-38.4 85.333333-85.333333-38.4-85.333333-85.333333-85.333334z" p-id="3605"></path><path d="M657.066667 789.333333c-8.533333 0-12.8 0-21.333334-4.266666l-290.133333-170.666667c-21.333333-12.8-25.6-38.4-17.066667-59.733333 12.8-21.333333 38.4-25.6 59.733334-17.066667l290.133333 170.666667c21.333333 12.8 25.6 38.4 17.066667 59.733333-8.533333 12.8-21.333333 21.333333-38.4 21.333333zM366.933333 490.666667c-12.8 0-29.866667-8.533333-38.4-21.333334-12.8-21.333333-4.266667-46.933333 17.066667-59.733333l290.133333-170.666667c21.333333-8.533333 46.933333-4.266667 59.733334 17.066667 12.8 21.333333 4.266667 46.933333-17.066667 59.733333l-290.133333 170.666667c-8.533333 0-12.8 4.266667-21.333334 4.266667z" p-id="3606"></path></svg>