<?xml version="1.0" standalone="no"?><!DOCTYPE svg PUBLIC "-//W3C//DTD SVG 1.1//EN" "http://www.w3.org/Graphics/SVG/1.1/DTD/svg11.dtd"><svg t="1625667259805" class="icon" viewBox="0 0 1024 1024" version="1.1" xmlns="http://www.w3.org/2000/svg" p-id="3757" xmlns:xlink="http://www.w3.org/1999/xlink" width="128" height="128"><defs><style type="text/css"></style></defs><path d="M512 981.333333C251.733333 981.333333 42.666667 772.266667 42.666667 512S251.733333 42.666667 512 42.666667s469.333333 209.066667 469.333333 469.333333-209.066667 469.333333-469.333333 469.333333z m0-853.333333c-213.333333 0-384 170.666667-384 384s170.666667 384 384 384 384-170.666667 384-384-170.666667-384-384-384z" p-id="3758"></path><path d="M512 725.333333c-128 0-200.533333-98.133333-204.8-102.4-12.8-17.066667-8.533333-46.933333 8.533333-59.733333 17.066667-12.8 46.933333-8.533333 59.733334 8.533333 0 0 55.466667 68.266667 136.533333 68.266667 81.066667 0 136.533333-68.266667 136.533333-68.266667 12.8-17.066667 42.666667-21.333333 59.733334-8.533333 17.066667 12.8 21.333333 42.666667 8.533333 59.733333-4.266667 4.266667-76.8 102.4-204.8 102.4zM384 426.666667c-25.6 0-42.666667-17.066667-42.666667-42.666667s17.066667-42.666667 42.666667-42.666667 42.666667 17.066667 42.666667 42.666667-17.066667 42.666667-42.666667 42.666667zM640 426.666667c-25.6 0-42.666667-17.066667-42.666667-42.666667s17.066667-42.666667 42.666667-42.666667 42.666667 17.066667 42.666667 42.666667-17.066667 42.666667-42.666667 42.666667z" p-id="3759"></path></svg>