<?xml version="1.0" standalone="no"?><!DOCTYPE svg PUBLIC "-//W3C//DTD SVG 1.1//EN" "http://www.w3.org/Graphics/SVG/1.1/DTD/svg11.dtd"><svg t="1625148005042" class="icon" viewBox="0 0 1024 1024" version="1.1" xmlns="http://www.w3.org/2000/svg" p-id="3746" xmlns:xlink="http://www.w3.org/1999/xlink" width="200" height="200"><defs><style type="text/css"></style></defs><path d="M512 981.333333C251.733333 981.333333 42.666667 772.266667 42.666667 512S251.733333 42.666667 512 42.666667s469.333333 209.066667 469.333333 469.333333-209.066667 469.333333-469.333333 469.333333z m0-853.333333c-213.333333 0-384 170.666667-384 384s170.666667 384 384 384 384-170.666667 384-384-170.666667-384-384-384z" p-id="3747"></path><path d="M384 682.666667c-12.8 0-21.333333-4.266667-29.866667-12.8-17.066667-17.066667-17.066667-42.666667 0-59.733334l256-256c17.066667-17.066667 42.666667-17.066667 59.733334 0 17.066667 17.066667 17.066667 42.666667 0 59.733334l-256 256c-8.533333 8.533333-17.066667 12.8-29.866667 12.8z" p-id="3748"></path><path d="M640 682.666667c-12.8 0-21.333333-4.266667-29.866667-12.8l-256-256c-17.066667-17.066667-17.066667-42.666667 0-59.733334 17.066667-17.066667 42.666667-17.066667 59.733334 0l256 256c17.066667 17.066667 17.066667 42.666667 0 59.733334-8.533333 8.533333-17.066667 12.8-29.866667 12.8z" p-id="3749"></path></svg>