<?xml version="1.0" standalone="no"?><!DOCTYPE svg PUBLIC "-//W3C//DTD SVG 1.1//EN" "http://www.w3.org/Graphics/SVG/1.1/DTD/svg11.dtd"><svg t="1625147998267" class="icon" viewBox="0 0 1024 1024" version="1.1" xmlns="http://www.w3.org/2000/svg" p-id="3604" xmlns:xlink="http://www.w3.org/1999/xlink" width="200" height="200"><defs><style type="text/css"></style></defs><path d="M256 810.666667c-12.8 0-21.333333-4.266667-29.866667-12.8-17.066667-17.066667-17.066667-42.666667 0-59.733334l512-512c17.066667-17.066667 42.666667-17.066667 59.733334 0s17.066667 42.666667 0 59.733334l-512 512c-8.533333 8.533333-17.066667 12.8-29.866667 12.8z" p-id="3605"></path><path d="M768 810.666667c-12.8 0-21.333333-4.266667-29.866667-12.8l-512-512c-17.066667-17.066667-17.066667-42.666667 0-59.733334s42.666667-17.066667 59.733334 0l512 512c17.066667 17.066667 17.066667 42.666667 0 59.733334-8.533333 8.533333-17.066667 12.8-29.866667 12.8z" p-id="3606"></path></svg>